<?xml version="1.0" encoding="UTF-8" standalone="no"?>
<!DOCTYPE svg PUBLIC "-//W3C//DTD SVG 1.1//EN" "http://www.w3.org/Graphics/SVG/1.1/DTD/svg11.dtd">
<svg width="100%" height="100%" viewBox="0 0 869 414" version="1.1" xmlns="http://www.w3.org/2000/svg" xmlns:xlink="http://www.w3.org/1999/xlink" xml:space="preserve" xmlns:serif="http://www.serif.com/" style="fill-rule:evenodd;clip-rule:evenodd;stroke-linejoin:round;stroke-miterlimit:2;">
    <g transform="matrix(1,0,0,1,-105.61,-333.15)">
        <path d="M578.58,525.86C583.381,520.883 587.123,514.984 589.58,508.52C591.928,502.458 593.154,496.02 593.2,489.52C593.263,480.802 591.492,472.168 588,464.18C584.433,456.171 578.394,449.51 570.77,445.18C562.737,440.393 551.787,438 537.92,438L462.19,438L462.19,604.45L493,604.45L493,541.45L526.76,541.45L558.26,604.45L592.84,604.45L560,537.28C567.047,535.08 573.434,531.154 578.58,525.86ZM552.12,509.17C548.75,511.34 544.18,512.44 538.4,512.44L493,512.44L493,467L538.4,467C544.4,467 549.1,468.14 552.4,470.44C555.562,472.553 558.005,475.582 559.4,479.12C562.137,486.038 562.09,493.755 559.27,500.64C557.837,504.16 555.336,507.144 552.12,509.17Z" style="fill:white;fill-rule:nonzero;"/>
    </g>
    <g transform="matrix(1,0,0,1,-105.61,-333.15)">
        <path d="M710.88,505.25C706.554,497.139 699.882,490.517 691.74,486.25C683.452,482.079 674.277,479.972 665,480.11C653.5,480.11 643.533,482.663 635.1,487.77C626.555,493.001 619.732,500.628 615.48,509.7C610.853,519.22 608.52,530.513 608.48,543.58C608.48,556.5 610.757,567.737 615.31,577.29C619.508,586.42 626.288,594.125 634.81,599.45C643.25,604.677 653.297,607.293 664.95,607.3C674.61,607.3 683.127,605.477 690.5,601.83C697.685,598.322 704.11,593.436 709.41,587.45L692.29,569.74C688.943,573.663 684.811,576.842 680.16,579.07C675.39,581.099 670.242,582.088 665.06,581.97C660.17,582.093 655.336,580.905 651.06,578.53C647.099,576.242 643.861,572.883 641.72,568.84C639.374,564.332 638.058,559.358 637.87,554.28L717.15,554.28C717.463,551.273 717.68,548.273 717.8,545.28C717.93,542.28 717.98,539.8 717.98,537.73C717.993,524.577 715.627,513.75 710.88,505.25ZM638,531.11C638.8,522.537 641.657,516.113 646.57,511.84C651.499,507.551 657.859,505.26 664.39,505.42C668.922,505.274 673.411,506.345 677.39,508.52C680.969,510.592 683.863,513.67 685.71,517.37C687.81,521.664 689.024,526.337 689.28,531.11L638,531.11Z" style="fill:white;fill-rule:nonzero;"/>
    </g>
    <g transform="matrix(1,0,0,1,-105.61,-333.15)">
        <path d="M746,446.22L746,604.45L775.72,604.45L775.72,432.8L746,446.22Z" style="fill:white;fill-rule:nonzero;"/>
    </g>
    <g transform="matrix(1,0,0,1,-105.61,-333.15)">
        <path d="M838.9,438C832,431.362 820.928,431.389 814.06,438.06C810.749,441.247 808.914,445.675 809,450.27C809.026,459.863 816.926,467.743 826.52,467.743C831.156,467.743 835.607,465.903 838.89,462.63C842.198,459.379 844.028,454.907 843.95,450.27C844.038,445.659 842.208,441.213 838.9,438ZM811.56,483L811.56,604.45L841.28,604.45L841.28,483L811.56,483Z" style="fill:white;fill-rule:nonzero;"/>
    </g>
    <g transform="matrix(1,0,0,1,-105.61,-333.15)">
        <path d="M946.37,561.29C944.537,567.083 941.74,571.483 937.98,574.49C934.107,577.537 929.286,579.134 924.36,579C916.84,579 910.86,575.83 906.42,569.49C901.98,563.15 899.763,554.593 899.77,543.82C899.77,532.867 902.047,524.223 906.6,517.89C910.701,511.792 917.654,508.206 925,508.4C929.542,508.326 933.98,509.769 937.61,512.5C941.455,515.514 944.345,519.579 945.93,524.2L974.1,514.69C970.373,503.29 964.33,494.673 955.97,488.84C947.61,483.007 937.13,480.097 924.53,480.11C913.363,480.11 903.657,482.703 895.41,487.89C887.044,493.229 880.412,500.893 876.33,509.94C871.85,519.453 869.61,530.75 869.61,543.83C869.61,556.91 871.83,568.177 876.27,577.63C880.287,586.65 886.858,594.3 895.17,599.63C903.33,604.783 912.997,607.357 924.17,607.35C937.09,607.35 947.81,604.2 956.33,597.9C964.85,591.6 970.89,582.23 974.45,569.79L946.37,561.29Z" style="fill:white;fill-rule:nonzero;"/>
    </g>
    <g transform="matrix(1,0,0,1,-105.61,-333.15)">
        <path d="M188.29,428.76C203.583,397.013 218.883,365.27 234.19,333.53L234.19,333.15L234.28,333.34L234.28,333.16L234.28,333.25L234.28,333.16L234.28,333.4L234.28,333.22L234.33,333.31L234.33,333.22L234.33,333.4L234.42,333.21L234.42,333.59C249.753,365.343 265.053,397.087 280.32,428.82L188.29,428.82L188.29,428.76ZM234.4,603.76L234.66,603.76C241.849,603.701 249.023,603.096 256.12,601.95C259.453,580.343 262.787,558.737 266.12,537.13L282.35,440.59L186.5,440.59L202.73,537.13C206.063,558.743 209.397,580.35 212.73,601.95C219.827,603.096 227.001,603.701 234.19,603.76L234.42,603.76L234.4,603.76ZM223.69,335.51L221.74,337.66C194.407,367.48 166.797,396.787 138.91,425.58L176.91,427.45L223.69,335.51ZM164,595.51C162.767,594.841 161.997,593.546 161.997,592.144C161.997,591.029 162.484,589.967 163.33,589.24L165.33,587.5C166.554,586.457 168.31,586.289 169.71,587.08C179.274,592.451 189.502,596.546 200.13,599.26L175.74,440.56L137.13,434.56C138.61,441.093 140.093,447.627 141.58,454.16C144.567,467.24 147.567,480.32 150.58,493.4C158.58,528.7 160.21,533.68 163.73,551.08C165.25,558.58 166.41,564.74 167.14,568.7L141.54,581.7C137.222,583.885 133.941,587.695 132.42,592.29C128.66,603.67 125.06,615.67 121.73,628.29C114.355,656.257 108.968,684.712 105.61,713.44C105.964,713.979 106.436,714.43 106.99,714.76C111.21,716.41 123.79,692.08 134.38,675.63C146.91,656.16 168.3,630.99 175.13,634.47C176.13,635 176.44,635.98 177.39,639.21C182.73,657.42 185.53,665.21 187.59,669.39C188.04,670.31 188.46,671.06 188.86,671.71C189.26,672.36 189.66,672.93 190.05,673.47C191.85,675.932 194.375,677.771 197.27,678.73C199.43,679.443 201.667,680.11 203.98,680.73C207.07,681.57 210.09,682.27 212.98,682.86C210.16,650.23 212.24,624.44 218.92,612.15C199.705,610.23 181.049,604.578 164,595.51ZM347.15,628.21C343.82,615.6 340.22,603.6 336.46,592.21C334.939,587.615 331.658,583.805 327.34,581.62L301.74,568.62C302.47,564.62 303.63,558.5 305.15,551C308.67,533.6 310.26,528.62 318.3,493.32C321.28,480.24 324.28,467.16 327.3,454.08C328.78,447.547 330.263,441.013 331.75,434.48L293.14,440.48L268.7,599.26C279.328,596.546 289.556,592.451 299.12,587.08C300.52,586.289 302.276,586.457 303.5,587.5L305.5,589.24C306.346,589.967 306.833,591.029 306.833,592.144C306.833,593.546 306.063,594.841 304.83,595.51C288.108,604.401 269.833,610 251,612C258.57,627.14 257.56,660.43 255.8,682.83C258.72,682.25 261.73,681.55 264.8,680.71C267.12,680.043 269.36,679.377 271.52,678.71C274.412,677.746 276.936,675.908 278.74,673.45C279.13,672.91 279.53,672.35 279.93,671.69C280.33,671.03 280.75,670.29 281.2,669.37C283.26,665.17 286.06,657.37 291.4,639.19C292.4,635.96 292.62,634.98 293.66,634.45C300.49,630.97 321.88,656.14 334.41,675.61C345,692.06 357.58,716.39 361.8,714.74C362.354,714.41 362.826,713.959 363.18,713.42C359.845,684.673 354.478,656.199 347.12,628.21L347.15,628.21ZM329.95,425.58C302.057,396.793 274.447,367.487 247.12,337.66L245.12,335.51L292,427.45L329.95,425.58ZM235.24,609.94C231.95,609.74 229.43,614.94 228.5,616.94C222.86,628.63 221.29,658.81 225.89,698.82C227.26,710.82 229.52,726.5 233.41,744.48C234.15,747.87 236.79,747.63 237.34,744.12C240.34,724.71 242.25,708.12 243.45,695.47C244.14,688.28 249.22,632.97 240.97,615.99C240.21,614.38 238.14,610.11 235.24,609.94Z" style="fill:url(#_Linear1);fill-rule:nonzero;"/>
    </g>
    <defs>
        <linearGradient id="_Linear1" x1="0" y1="0" x2="1" y2="0" gradientUnits="userSpaceOnUse" gradientTransform="matrix(-5.76,-229.15,229.15,-5.76,233.99,696.69)"><stop offset="0" style="stop-color:rgb(36,178,75);stop-opacity:1"/><stop offset="0.01" style="stop-color:rgb(36,178,75);stop-opacity:1"/><stop offset="1" style="stop-color:rgb(104,228,82);stop-opacity:1"/></linearGradient>
    </defs>
</svg>
